<?xml version="1.0" encoding="UTF-8" standalone="no"?>
<svg
   version="1.1"
   x="0px"
   y="0px"
   width="145"
   height="145"
   viewBox="0, 0, 145, 145"
   id="svg353"
   sodipodi:docname="reset.svg"
   inkscape:version="1.2 (dc2aeda, 2022-05-15)"
   xmlns:inkscape="http://www.inkscape.org/namespaces/inkscape"
   xmlns:sodipodi="http://sodipodi.sourceforge.net/DTD/sodipodi-0.dtd"
   xmlns="http://www.w3.org/2000/svg"
   xmlns:svg="http://www.w3.org/2000/svg">
  <sodipodi:namedview
     id="namedview355"
     pagecolor="#ffffff"
     bordercolor="#666666"
     borderopacity="1.0"
     inkscape:showpageshadow="2"
     inkscape:pageopacity="0.0"
     inkscape:pagecheckerboard="0"
     inkscape:deskcolor="#d1d1d1"
     showgrid="false"
     inkscape:zoom="1.6275862"
     inkscape:cx="71.885593"
     inkscape:cy="72.5"
     inkscape:window-width="710"
     inkscape:window-height="480"
     inkscape:window-x="25"
     inkscape:window-y="23"
     inkscape:window-maximized="0"
     inkscape:current-layer="svg353" />
  <g
     id="Layer 1">
    <path
       d="M102.75,72.577 C102.75,89.346 89.157,102.939 72.388,102.939 C55.619,102.939 42.026,89.346 42.026,72.577 C42.026,55.809 55.619,42.215 72.388,42.215 C89.157,42.215 102.75,55.809 102.75,72.577 z"
       fill-opacity="0"
       stroke="#000000"
       stroke-width="13"
       stroke-linecap="round"
       stroke-linejoin="round"
       id="path346" />
    <path
       d="M32.96,102.04 L103.671,31.329 C105.623,29.377 108.789,29.377 110.742,31.329 C110.742,31.329 110.742,31.329 110.742,31.329 L111.816,32.404 C113.769,34.357 113.769,37.522 111.816,39.475 L41.105,110.186 C39.153,112.139 35.987,112.139 34.034,110.186 C34.034,110.186 34.034,110.186 34.034,110.186 L32.96,109.111 C31.007,107.159 31.007,103.993 32.96,102.04 z"
       fill="#000000"
       id="path348" />
  </g>
  <defs
     id="defs351" />
</svg>
